%FSLAX23Y23*%
%MOIN*%
G04 EasyPC Gerber Version 18.0.6 Build 3620 *
%ADD70R,0.05000X0.05000*%
%ADD16R,0.05100X0.05100*%
%ADD22R,0.05200X0.05200*%
%ADD18R,0.06000X0.06000*%
%ADD20R,0.06000X0.06000*%
%ADD26C,0.01500*%
%ADD27C,0.04800*%
%ADD24C,0.05000*%
%ADD71C,0.05000*%
%ADD17C,0.05100*%
%ADD23C,0.05200*%
%ADD25C,0.05600*%
%ADD21C,0.06000*%
%ADD19C,0.06000*%
%ADD15C,0.12992*%
X0Y0D02*
D02*
D15*
X184Y2000D03*
X3934Y200D03*
Y2000D03*
D02*
D16*
X1234Y1500D03*
X1984D03*
X2784Y600D03*
Y1500D03*
X3534D03*
D02*
D17*
X1234Y1200D03*
Y1300D03*
Y1400D03*
X1534Y1200D03*
Y1300D03*
Y1400D03*
Y1500D03*
X1984Y1200D03*
Y1300D03*
Y1400D03*
X2284Y1200D03*
Y1300D03*
Y1400D03*
Y1500D03*
X2784Y300D03*
Y400D03*
Y500D03*
Y1200D03*
Y1300D03*
Y1400D03*
X3084Y300D03*
Y400D03*
Y500D03*
Y600D03*
Y1200D03*
Y1300D03*
Y1400D03*
Y1500D03*
X3534Y1200D03*
Y1300D03*
Y1400D03*
X3834Y1200D03*
Y1300D03*
Y1400D03*
Y1500D03*
D02*
D18*
X284Y250D03*
Y400D03*
Y550D03*
Y700D03*
Y850D03*
Y1000D03*
Y1150D03*
Y1300D03*
X384Y250D03*
Y400D03*
Y550D03*
Y700D03*
Y850D03*
Y1000D03*
Y1150D03*
Y1300D03*
X3734Y350D03*
Y450D03*
D02*
D19*
X584Y250D03*
Y400D03*
Y550D03*
Y700D03*
Y850D03*
Y1000D03*
Y1150D03*
Y1300D03*
X984Y250D03*
Y400D03*
Y550D03*
Y700D03*
Y850D03*
Y1000D03*
Y1150D03*
Y1300D03*
X2384Y300D03*
Y700D03*
X2584Y500D03*
Y900D03*
X3234Y750D03*
X3634D03*
D02*
D70*
X1534Y1650D03*
X2284D03*
X2984Y750D03*
X3084Y1650D03*
X3434Y459D03*
X3834Y1650D03*
D02*
D71*
X1534Y1750D03*
X2284D03*
X2984Y850D03*
X3084Y1750D03*
X3434Y400D03*
X3834Y1750D03*
D02*
D20*
X334D03*
X734Y1950D03*
D02*
D21*
X334Y1550D03*
Y1650D03*
X834Y1950D03*
X934D03*
X1034D03*
X1134D03*
X1234D03*
X1334D03*
X1434D03*
X1534D03*
X1634D03*
X1734D03*
X1834D03*
X1934D03*
X2034D03*
X2134D03*
X2234D03*
X2334D03*
X2434D03*
X2534D03*
X2634D03*
D02*
D22*
X2029Y301D03*
D02*
D23*
Y401D03*
Y501D03*
D02*
D24*
X284Y400D02*
Y250D01*
Y550D02*
Y400D01*
Y700D02*
Y550D01*
Y850D02*
Y700D01*
Y1000D02*
Y850D01*
Y1150D02*
Y1000D01*
Y1300D02*
Y1150D01*
Y1300D02*
Y1350D01*
X334Y1400*
X1084*
Y1350D02*
Y1200D01*
X1734Y550*
X1084Y1350D02*
Y1400D01*
Y1750*
X484*
Y1850*
X684Y2050*
X2134*
X1084Y1750D02*
X1534D01*
X1234Y1200D02*
X1084Y1350D01*
X1734Y550D02*
Y350D01*
X1784Y300*
X2028*
X2029Y301*
X1734Y1200D02*
Y550D01*
X2134Y1950D02*
Y2050D01*
X2284*
X2334Y2000*
Y1950*
X2284Y1750D02*
Y1850D01*
X2334Y1900*
Y1950*
X2434*
X2534Y1850*
X2984*
X3084Y1750*
X2784Y1200D02*
Y1050D01*
X2984Y850*
Y750D02*
Y700D01*
X3084Y600*
Y1750D02*
X3284D01*
Y1200D02*
X3534D01*
X3284D02*
Y1150D01*
X2984Y850*
X3284Y1750D02*
Y1800D01*
X3334Y1850*
X3784*
X3834Y1800*
Y1750*
X3284D02*
Y1200D01*
D02*
D25*
X1734D03*
Y1500D03*
D02*
D26*
X1434Y1950D02*
X1634Y1750D01*
Y1500*
X1534Y1400*
Y1300D02*
Y1400D01*
X1734Y1500D02*
Y1750D01*
X1534Y1950*
X1934D02*
X2084Y1800D01*
X2284Y1400D02*
X2184D01*
X1634Y1950*
X2284Y1400D02*
Y1300D01*
X2384Y1800D02*
X2484Y1700D01*
X2884*
X2984Y1600*
X3134*
X3184Y1550*
X2484Y1800D02*
X2834D01*
X2884Y1750*
X2934*
X2784Y1500D02*
X2384D01*
X2334Y1450*
X2234*
X1734Y1950*
X3084Y400D02*
Y500D01*
Y1400D02*
X3034D01*
X2834Y1600*
X2184*
X1834Y1950*
X3084Y1400D02*
Y1300D01*
X3834D02*
Y1400D01*
X3684Y1550*
Y1750*
X3484*
D02*
D27*
X2084Y1800D03*
X2384D03*
X2484D03*
X2934Y1750D03*
X3184Y1550D03*
X3484Y1750D03*
X0Y0D02*
M02*
