%FSLAX23Y23*%
%MOIN*%
G04 EasyPC Gerber Version 18.0.6 Build 3620 *
%ADD70R,0.05000X0.05000*%
%ADD16R,0.05100X0.05100*%
%ADD22R,0.05200X0.05200*%
%ADD18R,0.06000X0.06000*%
%ADD20R,0.06000X0.06000*%
%ADD26C,0.01500*%
%ADD27C,0.04800*%
%ADD24C,0.05000*%
%ADD71C,0.05000*%
%ADD17C,0.05100*%
%ADD23C,0.05200*%
%ADD25C,0.05600*%
%ADD21C,0.06000*%
%ADD19C,0.06000*%
%ADD15C,0.12992*%
X0Y0D02*
D02*
D15*
X184Y2000D03*
X3934Y200D03*
Y2000D03*
D02*
D16*
X1234Y1500D03*
X1984D03*
X2784Y600D03*
Y1500D03*
X3534D03*
D02*
D17*
X1234Y1200D03*
Y1300D03*
Y1400D03*
X1534Y1200D03*
Y1300D03*
Y1400D03*
Y1500D03*
X1984Y1200D03*
Y1300D03*
Y1400D03*
X2284Y1200D03*
Y1300D03*
Y1400D03*
Y1500D03*
X2784Y300D03*
Y400D03*
Y500D03*
Y1200D03*
Y1300D03*
Y1400D03*
X3084Y300D03*
Y400D03*
Y500D03*
Y600D03*
Y1200D03*
Y1300D03*
Y1400D03*
Y1500D03*
X3534Y1200D03*
Y1300D03*
Y1400D03*
X3834Y1200D03*
Y1300D03*
Y1400D03*
Y1500D03*
D02*
D18*
X284Y250D03*
Y400D03*
Y550D03*
Y700D03*
Y850D03*
Y1000D03*
Y1150D03*
Y1300D03*
X384Y250D03*
Y400D03*
Y550D03*
Y700D03*
Y850D03*
Y1000D03*
Y1150D03*
Y1300D03*
X3734Y350D03*
Y450D03*
D02*
D19*
X584Y250D03*
Y400D03*
Y550D03*
Y700D03*
Y850D03*
Y1000D03*
Y1150D03*
Y1300D03*
X984Y250D03*
Y400D03*
Y550D03*
Y700D03*
Y850D03*
Y1000D03*
Y1150D03*
Y1300D03*
X2384Y300D03*
Y700D03*
X2584Y500D03*
Y900D03*
X3234Y750D03*
X3634D03*
D02*
D70*
X1534Y1650D03*
X2284D03*
X2984Y750D03*
X3084Y1650D03*
X3434Y459D03*
X3834Y1650D03*
D02*
D71*
X1534Y1750D03*
X2284D03*
X2984Y850D03*
X3084Y1750D03*
X3434Y400D03*
X3834Y1750D03*
D02*
D20*
X334D03*
X734Y1950D03*
D02*
D21*
X334Y1550D03*
Y1650D03*
X834Y1950D03*
X934D03*
X1034D03*
X1134D03*
X1234D03*
X1334D03*
X1434D03*
X1534D03*
X1634D03*
X1734D03*
X1834D03*
X1934D03*
X2034D03*
X2134D03*
X2234D03*
X2334D03*
X2434D03*
X2534D03*
X2634D03*
D02*
D22*
X2029Y301D03*
D02*
D23*
Y401D03*
Y501D03*
D02*
D24*
X1534Y1500D02*
Y1650D01*
X1984Y1200D02*
X1734D01*
X2029Y301D02*
X2383D01*
X2384Y300*
X2284Y1650D02*
X1534D01*
X2284D02*
X2634D01*
X2284D02*
Y1500D01*
X2384Y300D02*
X2784D01*
X2534Y1950D02*
Y2000D01*
X2584Y2050*
X3684*
X3934Y1800*
Y1150*
X3684Y900*
X3134*
X2984Y750*
X2634Y1650D02*
X3084D01*
X2634Y1950D02*
Y1650D01*
X2784Y300D02*
X3084D01*
X3434*
X3084Y1500D02*
Y1650D01*
X3434Y300D02*
X3684D01*
X3734Y350*
X3434Y400D02*
Y300D01*
X3834Y1500D02*
Y1650D01*
X3084*
D02*
D25*
X1734Y1200D03*
Y1500D03*
D02*
D26*
X384Y250D02*
X584D01*
X384Y400D02*
X584D01*
X384Y550D02*
X584D01*
X384Y700D02*
X584D01*
X384Y850D02*
X584D01*
X384Y1000D02*
X584D01*
X384Y1150D02*
X584D01*
X384Y1300D02*
X584D01*
X984Y250D02*
X1184D01*
X1834Y900*
X2484*
X2584Y1000*
X3634*
X3834Y1200*
X984Y400D02*
X1234D01*
X1784Y950*
X2434*
X2534Y1050*
X3284*
X3534Y1300*
X984Y550D02*
X1284D01*
X1734Y1000*
X2384*
X2484Y1100*
X2984*
X3084Y1200*
X984Y700D02*
X1334D01*
X1684Y1050*
X2334*
X2584Y1300*
X2784*
X984Y850D02*
X1384D01*
X1634Y1100*
X2184*
X2284Y1200*
X984Y1000D02*
X1434D01*
X1734Y1300*
X1984*
X984Y1150D02*
X1134D01*
X1184Y1100*
X1434*
X1534Y1200*
X984Y1300D02*
X1234D01*
Y1500D02*
Y1750D01*
X1334Y1850*
Y1950*
X1234Y1500D02*
Y1400D01*
X1984Y1500D02*
X1734D01*
X1984D02*
Y1400D01*
X2029Y401D02*
X2783D01*
X2784Y400*
X2029Y501D02*
X1885D01*
X1534Y150*
X184*
X134Y200*
Y1350*
X234Y1450*
X434*
X734Y1750*
Y1950*
X2034D02*
X2134Y1850D01*
X2434*
X2484Y1800*
X2084D02*
X2384D01*
Y700D02*
X2584Y900D01*
Y500D02*
X2784D01*
X2584Y900D02*
X2684D01*
X2784Y800*
Y600*
X2984*
X3134Y750*
X3234*
X2784Y1500D02*
Y1400D01*
X2934Y1750D02*
X2984D01*
X3034Y1700*
X3334*
X3384Y1750*
X3484*
X3434Y459D02*
X3725D01*
X3734Y450*
X3534Y1500D02*
X3484Y1550D01*
X3184*
X3534Y1500D02*
Y1400D01*
X3634Y750D02*
Y559D01*
X3534Y459*
X3434*
D02*
D27*
X2084Y1800D03*
X2384D03*
X2484D03*
X2934Y1750D03*
X3184Y1550D03*
X3484Y1750D03*
X0Y0D02*
M02*
