%FSLAX23Y23*%
%MOIN*%
G04 EasyPC Gerber Version 18.0.6 Build 3620 *
%ADD10C,0.00100*%
%ADD12C,0.00300*%
%ADD14C,0.00500*%
%ADD11C,0.00600*%
%ADD13C,0.01000*%
X0Y0D02*
D02*
D10*
X239Y55D02*
X245D01*
X242D02*
Y74D01*
X239D02*
X245D01*
X259Y55D02*
Y67D01*
Y63D02*
X261Y66D01*
X264Y67*
X267*
X270Y66*
X272Y63*
Y55*
X284Y67D02*
Y50D01*
Y60D02*
X286Y56D01*
X289Y55*
X292*
X295Y56*
X297Y60*
Y63*
X295Y66*
X292Y67*
X289*
X286Y66*
X284Y63*
Y60*
X309Y67D02*
Y60D01*
X311Y56*
X314Y55*
X317*
X320Y56*
X322Y60*
Y67D02*
Y55D01*
X338Y67D02*
X344D01*
X341Y70D02*
Y56D01*
X342Y55*
X344*
X345Y56*
X359D02*
X363Y55D01*
X369*
X372Y56*
Y60*
X369Y61*
X363*
X359Y63*
Y66*
X363Y67*
X369*
X372Y66*
X245Y113D02*
X250D01*
Y111*
X248Y108*
X247Y106*
X244Y105*
X241*
X238Y106*
X236Y108*
X234Y111*
Y117*
X236Y120*
X238Y122*
X241Y124*
X244*
X247Y122*
X248Y120*
X250Y117*
X259Y105D02*
Y124D01*
X275Y105*
Y124*
X284Y105D02*
Y124D01*
X294*
X297Y122*
X298Y120*
X300Y117*
Y111*
X298Y108*
X297Y106*
X294Y105*
X284*
X334Y2058D02*
X336Y2056D01*
X339Y2055*
X342Y2056*
X344Y2058*
Y2074*
X347*
X344D02*
X338D01*
X359Y2055D02*
Y2074D01*
Y2064D02*
X364D01*
X375Y2074*
X364Y2064D02*
X375Y2055D01*
X384Y111D02*
X397D01*
X391Y105D02*
Y117D01*
X684Y1855D02*
Y1874D01*
X694*
X697Y1872*
X698Y1870*
X700Y1867*
Y1861*
X698Y1858*
X697Y1856*
X694Y1855*
X684*
X709D02*
X717Y1874D01*
X725Y1855*
X713Y1863D02*
X722D01*
X750Y1858D02*
X748Y1856D01*
X745Y1855*
X741*
X738Y1856*
X736Y1858*
X734Y1861*
Y1867*
X736Y1870*
X738Y1872*
X741Y1874*
X745*
X748Y1872*
X750Y1870*
X761Y1856D02*
X764Y1855D01*
X767*
X770Y1856*
X772Y1860*
Y1869*
X770Y1872*
X767Y1874*
X764*
X761Y1872*
X759Y1869*
Y1860*
X761Y1856*
X770Y1872*
X1284Y1311D02*
Y1317D01*
X1286Y1320*
X1288Y1322*
X1291Y1324*
X1294*
X1297Y1322*
X1298Y1320*
X1300Y1317*
Y1311*
X1298Y1308*
X1297Y1306*
X1294Y1305*
X1291*
X1288Y1306*
X1286Y1308*
X1284Y1311*
X1309Y1305D02*
Y1324D01*
X1320*
X1323Y1322*
X1325Y1319*
X1323Y1316*
X1320Y1314*
X1309*
X1334Y1305D02*
X1342Y1324D01*
X1350Y1305*
X1338Y1313D02*
X1347D01*
X1372Y1305D02*
X1359D01*
X1370Y1316*
X1372Y1319*
X1370Y1322*
X1367Y1324*
X1363*
X1359Y1322*
X1386Y1306D02*
X1389Y1305D01*
X1392*
X1395Y1306*
X1397Y1310*
X1395Y1313*
X1392Y1314*
X1389*
X1392D02*
X1395Y1316D01*
X1397Y1319*
X1395Y1322*
X1392Y1324*
X1389*
X1386Y1322*
X1409Y1306D02*
X1413Y1305D01*
X1417*
X1420Y1306*
X1422Y1310*
Y1311*
X1420Y1314*
X1417Y1316*
X1409*
Y1324*
X1422*
X1436Y1306D02*
X1439Y1305D01*
X1442*
X1445Y1306*
X1447Y1310*
Y1319*
X1445Y1322*
X1442Y1324*
X1439*
X1436Y1322*
X1434Y1319*
Y1310*
X1436Y1306*
X1445Y1322*
X1784Y110D02*
X1786Y106D01*
X1789Y105*
X1792*
X1795Y106*
X1797Y110*
Y113*
X1795Y116*
X1792Y117*
X1789*
X1786Y116*
X1784Y113*
Y110*
X1816Y105D02*
Y120D01*
X1817Y122*
X1819*
X1820Y120*
X1813Y116D02*
X1819D01*
X1863Y117D02*
X1869D01*
X1866Y120D02*
Y106D01*
X1867Y105*
X1869*
X1870Y106*
X1897D02*
X1895Y105D01*
X1892*
X1889*
X1886Y106*
X1884Y110*
Y114*
X1886Y116*
X1889Y117*
X1892*
X1895Y116*
X1897Y114*
Y113*
X1895Y111*
X1892Y110*
X1889*
X1886Y111*
X1884Y113*
X1909Y105D02*
Y117D01*
Y116D02*
X1911Y117D01*
X1914*
X1916Y116*
Y111*
Y116D02*
X1917Y117D01*
X1920*
X1922Y116*
Y105*
X1934Y117D02*
Y100D01*
Y110D02*
X1936Y106D01*
X1939Y105*
X1942*
X1945Y106*
X1947Y110*
Y113*
X1945Y116*
X1942Y117*
X1939*
X1936Y116*
X1934Y113*
Y110*
X1972Y106D02*
X1970Y105D01*
X1967*
X1964*
X1961Y106*
X1959Y110*
Y114*
X1961Y116*
X1964Y117*
X1967*
X1970Y116*
X1972Y114*
Y113*
X1970Y111*
X1967Y110*
X1964*
X1961Y111*
X1959Y113*
X1984Y105D02*
Y117D01*
Y113D02*
X1986Y116D01*
X1989Y117*
X1992*
X1995Y116*
X2009D02*
X2013Y117D01*
X2017*
X2020Y116*
X2022Y113*
Y108*
X2020Y106*
X2017Y105*
X2014*
X2011Y106*
X2009Y108*
Y110*
X2011Y111*
X2014Y113*
X2017*
X2020Y111*
X2022Y110*
Y108D02*
Y105D01*
X2038Y117D02*
X2044D01*
X2041Y120D02*
Y106D01*
X2042Y105*
X2044*
X2045Y106*
X2059Y117D02*
Y110D01*
X2061Y106*
X2064Y105*
X2067*
X2070Y106*
X2072Y110*
Y117D02*
Y105D01*
X2084D02*
Y117D01*
Y113D02*
X2086Y116D01*
X2089Y117*
X2092*
X2095Y116*
X2122Y106D02*
X2120Y105D01*
X2117*
X2114*
X2111Y106*
X2109Y110*
Y114*
X2111Y116*
X2114Y117*
X2117*
X2120Y116*
X2122Y114*
Y113*
X2120Y111*
X2117Y110*
X2114*
X2111Y111*
X2109Y113*
X2159Y105D02*
Y117D01*
Y113D02*
X2161Y116D01*
X2164Y117*
X2167*
X2170Y116*
X2184D02*
X2188Y117D01*
X2192*
X2195Y116*
X2197Y113*
Y108*
X2195Y106*
X2192Y105*
X2189*
X2186Y106*
X2184Y108*
Y110*
X2186Y111*
X2189Y113*
X2192*
X2195Y111*
X2197Y110*
Y108D02*
Y105D01*
X2209D02*
Y117D01*
Y116D02*
X2211Y117D01*
X2214*
X2216Y116*
Y111*
Y116D02*
X2217Y117D01*
X2220*
X2222Y116*
Y105*
X2234Y117D02*
Y100D01*
Y110D02*
X2236Y106D01*
X2239Y105*
X2242*
X2245Y106*
X2247Y110*
Y113*
X2245Y116*
X2242Y117*
X2239*
X2236Y116*
X2234Y113*
Y110*
X1792Y155D02*
Y174D01*
X1784D02*
X1800D01*
X1809Y155D02*
Y167D01*
Y163D02*
X1811Y166D01*
X1814Y167*
X1817*
X1820Y166*
X1841Y155D02*
Y167D01*
Y172D02*
X1859Y155*
Y167D01*
Y166D02*
X1861Y167D01*
X1864*
X1866Y166*
Y161*
Y166D02*
X1867Y167D01*
X1870*
X1872Y166*
Y155*
X1916D02*
Y170D01*
X1917Y172*
X1919*
X1920Y170*
X1913Y166D02*
X1919D01*
X1934Y160D02*
X1936Y156D01*
X1939Y155*
X1942*
X1945Y156*
X1947Y160*
Y163*
X1945Y166*
X1942Y167*
X1939*
X1936Y166*
X1934Y163*
Y160*
X1959Y155D02*
Y167D01*
Y163D02*
X1961Y166D01*
X1964Y167*
X1967*
X1970Y166*
X2020Y163D02*
X2025D01*
Y161*
X2023Y158*
X2022Y156*
X2019Y155*
X2016*
X2013Y156*
X2011Y158*
X2009Y161*
Y167*
X2011Y170*
X2013Y172*
X2016Y174*
X2019*
X2022Y172*
X2023Y170*
X2025Y167*
X2034Y166D02*
X2038Y167D01*
X2042*
X2045Y166*
X2047Y163*
Y158*
X2045Y156*
X2042Y155*
X2039*
X2036Y156*
X2034Y158*
Y160*
X2036Y161*
X2039Y163*
X2042*
X2045Y161*
X2047Y160*
Y158D02*
Y155D01*
X2066D02*
Y167D01*
Y172D02*
X2084Y155*
Y167D01*
Y163D02*
X2086Y166D01*
X2089Y167*
X2092*
X2095Y166*
X2097Y163*
Y155*
X2147Y166D02*
X2144Y167D01*
X2139*
X2136Y166*
X2134Y163*
Y160*
X2136Y156*
X2139Y155*
X2144*
X2147Y156*
X2159Y160D02*
X2161Y156D01*
X2164Y155*
X2167*
X2170Y156*
X2172Y160*
Y163*
X2170Y166*
X2167Y167*
X2164*
X2161Y166*
X2159Y163*
Y160*
X2184Y155D02*
Y167D01*
Y163D02*
X2186Y166D01*
X2189Y167*
X2192*
X2195Y166*
X2197Y163*
Y155*
X2213Y167D02*
X2219D01*
X2216Y170D02*
Y156D01*
X2217Y155*
X2219*
X2220Y156*
X2234Y155D02*
Y167D01*
Y163D02*
X2236Y166D01*
X2239Y167*
X2242*
X2245Y166*
X2259Y160D02*
X2261Y156D01*
X2264Y155*
X2267*
X2270Y156*
X2272Y160*
Y163*
X2270Y166*
X2267Y167*
X2264*
X2261Y166*
X2259Y163*
Y160*
X2292Y155D02*
X2291D01*
Y174*
X2034Y1311D02*
Y1317D01*
X2036Y1320*
X2038Y1322*
X2041Y1324*
X2044*
X2047Y1322*
X2048Y1320*
X2050Y1317*
Y1311*
X2048Y1308*
X2047Y1306*
X2044Y1305*
X2041*
X2038Y1306*
X2036Y1308*
X2034Y1311*
X2059Y1305D02*
Y1324D01*
X2070*
X2073Y1322*
X2075Y1319*
X2073Y1316*
X2070Y1314*
X2059*
X2084Y1305D02*
X2092Y1324D01*
X2100Y1305*
X2088Y1313D02*
X2097D01*
X2122Y1305D02*
X2109D01*
X2120Y1316*
X2122Y1319*
X2120Y1322*
X2117Y1324*
X2113*
X2109Y1322*
X2136Y1306D02*
X2139Y1305D01*
X2142*
X2145Y1306*
X2147Y1310*
X2145Y1313*
X2142Y1314*
X2139*
X2142D02*
X2145Y1316D01*
X2147Y1319*
X2145Y1322*
X2142Y1324*
X2139*
X2136Y1322*
X2159Y1306D02*
X2163Y1305D01*
X2167*
X2170Y1306*
X2172Y1310*
Y1311*
X2170Y1314*
X2167Y1316*
X2159*
Y1324*
X2172*
X2186Y1306D02*
X2189Y1305D01*
X2192*
X2195Y1306*
X2197Y1310*
Y1319*
X2195Y1322*
X2192Y1324*
X2189*
X2186Y1322*
X2184Y1319*
Y1310*
X2186Y1306*
X2195Y1322*
X2345Y2063D02*
X2350D01*
Y2061*
X2348Y2058*
X2347Y2056*
X2344Y2055*
X2341*
X2338Y2056*
X2336Y2058*
X2334Y2061*
Y2067*
X2336Y2070*
X2338Y2072*
X2341Y2074*
X2344*
X2347Y2072*
X2348Y2070*
X2350Y2067*
X2359Y2055D02*
Y2074D01*
X2375Y2055*
Y2074*
X2384Y2055D02*
Y2074D01*
X2394*
X2397Y2072*
X2398Y2070*
X2400Y2067*
Y2061*
X2398Y2058*
X2397Y2056*
X2394Y2055*
X2384*
X2389Y1355D02*
X2395D01*
X2392D02*
Y1374D01*
X2389D02*
X2395D01*
X2409Y1355D02*
Y1367D01*
Y1363D02*
X2411Y1366D01*
X2414Y1367*
X2417*
X2420Y1366*
X2422Y1363*
Y1355*
X2434Y1367D02*
Y1350D01*
Y1360D02*
X2436Y1356D01*
X2439Y1355*
X2442*
X2445Y1356*
X2447Y1360*
Y1363*
X2445Y1366*
X2442Y1367*
X2439*
X2436Y1366*
X2434Y1363*
Y1360*
X2459Y1367D02*
Y1360D01*
X2461Y1356*
X2464Y1355*
X2467*
X2470Y1356*
X2472Y1360*
Y1367D02*
Y1355D01*
X2488Y1367D02*
X2494D01*
X2491Y1370D02*
Y1356D01*
X2492Y1355*
X2494*
X2495Y1356*
X2545Y1364D02*
X2548Y1363D01*
X2550Y1360*
X2548Y1356*
X2545Y1355*
X2534*
Y1374*
X2545*
X2548Y1372*
X2550Y1369*
X2548Y1366*
X2545Y1364*
X2534*
X2559Y1367D02*
Y1360D01*
X2561Y1356*
X2564Y1355*
X2567*
X2570Y1356*
X2572Y1360*
Y1367D02*
Y1355D01*
X2591D02*
Y1370D01*
X2592Y1372*
X2594*
X2595Y1370*
X2588Y1366D02*
X2594D01*
X2616Y1355D02*
Y1370D01*
X2617Y1372*
X2619*
X2620Y1370*
X2613Y1366D02*
X2619D01*
X2647Y1356D02*
X2645Y1355D01*
X2642*
X2639*
X2636Y1356*
X2634Y1360*
Y1364*
X2636Y1366*
X2639Y1367*
X2642*
X2645Y1366*
X2647Y1364*
Y1363*
X2645Y1361*
X2642Y1360*
X2639*
X2636Y1361*
X2634Y1363*
X2659Y1355D02*
Y1367D01*
Y1363D02*
X2661Y1366D01*
X2664Y1367*
X2667*
X2670Y1366*
X2684Y1356D02*
X2688Y1355D01*
X2694*
X2697Y1356*
Y1360*
X2694Y1361*
X2688*
X2684Y1363*
Y1366*
X2688Y1367*
X2694*
X2697Y1366*
X2484Y2056D02*
X2488Y2055D01*
X2492*
X2495Y2056*
X2497Y2060*
Y2061*
X2495Y2064*
X2492Y2066*
X2484*
Y2074*
X2497*
X2509D02*
X2517Y2055D01*
X2525Y2074*
X2736Y1956D02*
X2739Y1955D01*
X2742*
X2745Y1956*
X2747Y1960*
X2745Y1963*
X2742Y1964*
X2739*
X2742D02*
X2745Y1966D01*
X2747Y1969*
X2745Y1972*
X2742Y1974*
X2739*
X2736Y1972*
X2759Y1974D02*
X2767Y1955D01*
X2775Y1974*
X2786Y1956D02*
X2789Y1955D01*
X2792*
X2795Y1956*
X2797Y1960*
X2795Y1963*
X2792Y1964*
X2789*
X2792D02*
X2795Y1966D01*
X2797Y1969*
X2795Y1972*
X2792Y1974*
X2789*
X2786Y1972*
X2784Y2105D02*
X2792Y2124D01*
X2800Y2105*
X2788Y2113D02*
X2797D01*
X2809Y2105D02*
Y2117D01*
Y2113D02*
X2811Y2116D01*
X2814Y2117*
X2817*
X2820Y2116*
X2847Y2113D02*
X2845Y2116D01*
X2842Y2117*
X2839*
X2836Y2116*
X2834Y2113*
Y2110*
X2836Y2106*
X2839Y2105*
X2842*
X2845Y2106*
X2847Y2110*
Y2105D02*
Y2124D01*
X2859Y2117D02*
Y2110D01*
X2861Y2106*
X2864Y2105*
X2867*
X2870Y2106*
X2872Y2110*
Y2117D02*
Y2105D01*
X2891D02*
Y2117D01*
Y2122D02*
X2909Y2105*
Y2117D01*
Y2113D02*
X2911Y2116D01*
X2914Y2117*
X2917*
X2920Y2116*
X2922Y2113*
Y2105*
X2934Y2110D02*
X2936Y2106D01*
X2939Y2105*
X2942*
X2945Y2106*
X2947Y2110*
Y2113*
X2945Y2116*
X2942Y2117*
X2939*
X2936Y2116*
X2934Y2113*
Y2110*
X2984Y2105D02*
Y2124D01*
X2994*
X2997Y2122*
X2998Y2120*
X3000Y2117*
Y2111*
X2998Y2108*
X2997Y2106*
X2994Y2105*
X2984*
X3009Y2124D02*
Y2110D01*
X3011Y2106*
X3014Y2105*
X3020*
X3023Y2106*
X3025Y2110*
Y2124*
X3034Y2105D02*
Y2124D01*
X3050*
X3047Y2114D02*
X3034D01*
Y2105D02*
X3050D01*
X3084D02*
Y2124D01*
X3094*
X3097Y2122*
X3098Y2120*
X3100Y2117*
Y2111*
X3098Y2108*
X3097Y2106*
X3094Y2105*
X3084*
X3109Y2116D02*
X3113Y2117D01*
X3117*
X3120Y2116*
X3122Y2113*
Y2108*
X3120Y2106*
X3117Y2105*
X3114*
X3111Y2106*
X3109Y2108*
Y2110*
X3111Y2111*
X3114Y2113*
X3117*
X3120Y2111*
X3122Y2110*
Y2108D02*
Y2105D01*
X3138Y2117D02*
X3144D01*
X3141Y2120D02*
Y2106D01*
X3142Y2105*
X3144*
X3145Y2106*
X3159Y2116D02*
X3163Y2117D01*
X3167*
X3170Y2116*
X3172Y2113*
Y2108*
X3170Y2106*
X3167Y2105*
X3164*
X3161Y2106*
X3159Y2108*
Y2110*
X3161Y2111*
X3164Y2113*
X3167*
X3170Y2111*
X3172Y2110*
Y2108D02*
Y2105D01*
X3209Y2124D02*
Y2105D01*
X3225*
X3234Y2110D02*
X3236Y2106D01*
X3239Y2105*
X3242*
X3245Y2106*
X3247Y2110*
Y2113*
X3245Y2116*
X3242Y2117*
X3239*
X3236Y2116*
X3234Y2113*
Y2110*
X3272Y2113D02*
X3270Y2116D01*
X3267Y2117*
X3264*
X3261Y2116*
X3259Y2113*
Y2111*
X3261Y2108*
X3264Y2106*
X3267*
X3270Y2108*
X3272Y2111*
Y2117D02*
Y2105D01*
X3270Y2102*
X3267Y2100*
X3263*
X3259Y2102*
X3297Y2113D02*
X3295Y2116D01*
X3292Y2117*
X3289*
X3286Y2116*
X3284Y2113*
Y2111*
X3286Y2108*
X3289Y2106*
X3292*
X3295Y2108*
X3297Y2111*
Y2117D02*
Y2105D01*
X3295Y2102*
X3292Y2100*
X3288*
X3284Y2102*
X3322Y2106D02*
X3320Y2105D01*
X3317*
X3314*
X3311Y2106*
X3309Y2110*
Y2114*
X3311Y2116*
X3314Y2117*
X3317*
X3320Y2116*
X3322Y2114*
Y2113*
X3320Y2111*
X3317Y2110*
X3314*
X3311Y2111*
X3309Y2113*
X3334Y2105D02*
Y2117D01*
Y2113D02*
X3336Y2116D01*
X3339Y2117*
X3342*
X3345Y2116*
X3391Y2105D02*
Y2120D01*
X3392Y2122*
X3394*
X3395Y2120*
X3388Y2116D02*
X3394D01*
X3409Y2110D02*
X3411Y2106D01*
X3414Y2105*
X3417*
X3420Y2106*
X3422Y2110*
Y2113*
X3420Y2116*
X3417Y2117*
X3414*
X3411Y2116*
X3409Y2113*
Y2110*
X3434Y2105D02*
Y2117D01*
Y2113D02*
X3436Y2116D01*
X3439Y2117*
X3442*
X3445Y2116*
X3484Y2105D02*
Y2124D01*
X3494*
X3497Y2122*
X3498Y2120*
X3500Y2117*
Y2111*
X3498Y2108*
X3497Y2106*
X3494Y2105*
X3484*
X3509D02*
Y2124D01*
X3525*
X3522Y2114D02*
X3509D01*
X3545D02*
X3548Y2113D01*
X3550Y2110*
X3548Y2106*
X3545Y2105*
X3534*
Y2124*
X3545*
X3548Y2122*
X3550Y2119*
X3548Y2116*
X3545Y2114*
X3534*
X3584Y2124D02*
Y2105D01*
X3600*
X3609Y2116D02*
X3613Y2117D01*
X3617*
X3620Y2116*
X3622Y2113*
Y2108*
X3620Y2106*
X3617Y2105*
X3614*
X3611Y2106*
X3609Y2108*
Y2110*
X3611Y2111*
X3614Y2113*
X3617*
X3620Y2111*
X3622Y2110*
Y2108D02*
Y2105D01*
X3634Y2106D02*
X3638Y2105D01*
X3644*
X3647Y2106*
Y2110*
X3644Y2111*
X3638*
X3634Y2113*
Y2116*
X3638Y2117*
X3644*
X3647Y2116*
X3672Y2106D02*
X3670Y2105D01*
X3667*
X3664*
X3661Y2106*
X3659Y2110*
Y2114*
X3661Y2116*
X3664Y2117*
X3667*
X3670Y2116*
X3672Y2114*
Y2113*
X3670Y2111*
X3667Y2110*
X3664*
X3661Y2111*
X3659Y2113*
X3684Y2105D02*
Y2117D01*
Y2113D02*
X3686Y2116D01*
X3689Y2117*
X3692*
X3695Y2116*
X2834Y411D02*
Y417D01*
X2836Y420*
X2838Y422*
X2841Y424*
X2844*
X2847Y422*
X2848Y420*
X2850Y417*
Y411*
X2848Y408*
X2847Y406*
X2844Y405*
X2841*
X2838Y406*
X2836Y408*
X2834Y411*
X2859Y405D02*
Y424D01*
X2870*
X2873Y422*
X2875Y419*
X2873Y416*
X2870Y414*
X2859*
X2884Y405D02*
X2892Y424D01*
X2900Y405*
X2888Y413D02*
X2897D01*
X2922Y405D02*
X2909D01*
X2920Y416*
X2922Y419*
X2920Y422*
X2917Y424*
X2913*
X2909Y422*
X2936Y406D02*
X2939Y405D01*
X2942*
X2945Y406*
X2947Y410*
X2945Y413*
X2942Y414*
X2939*
X2942D02*
X2945Y416D01*
X2947Y419*
X2945Y422*
X2942Y424*
X2939*
X2936Y422*
X2959Y406D02*
X2963Y405D01*
X2967*
X2970Y406*
X2972Y410*
Y411*
X2970Y414*
X2967Y416*
X2959*
Y424*
X2972*
X2986Y406D02*
X2989Y405D01*
X2992*
X2995Y406*
X2997Y410*
Y419*
X2995Y422*
X2992Y424*
X2989*
X2986Y422*
X2984Y419*
Y410*
X2986Y406*
X2995Y422*
X2834Y1311D02*
Y1317D01*
X2836Y1320*
X2838Y1322*
X2841Y1324*
X2844*
X2847Y1322*
X2848Y1320*
X2850Y1317*
Y1311*
X2848Y1308*
X2847Y1306*
X2844Y1305*
X2841*
X2838Y1306*
X2836Y1308*
X2834Y1311*
X2859Y1305D02*
Y1324D01*
X2870*
X2873Y1322*
X2875Y1319*
X2873Y1316*
X2870Y1314*
X2859*
X2884Y1305D02*
X2892Y1324D01*
X2900Y1305*
X2888Y1313D02*
X2897D01*
X2922Y1305D02*
X2909D01*
X2920Y1316*
X2922Y1319*
X2920Y1322*
X2917Y1324*
X2913*
X2909Y1322*
X2936Y1306D02*
X2939Y1305D01*
X2942*
X2945Y1306*
X2947Y1310*
X2945Y1313*
X2942Y1314*
X2939*
X2942D02*
X2945Y1316D01*
X2947Y1319*
X2945Y1322*
X2942Y1324*
X2939*
X2936Y1322*
X2959Y1306D02*
X2963Y1305D01*
X2967*
X2970Y1306*
X2972Y1310*
Y1311*
X2970Y1314*
X2967Y1316*
X2959*
Y1324*
X2972*
X2986Y1306D02*
X2989Y1305D01*
X2992*
X2995Y1306*
X2997Y1310*
Y1319*
X2995Y1322*
X2992Y1324*
X2989*
X2986Y1322*
X2984Y1319*
Y1310*
X2986Y1306*
X2995Y1322*
X2884Y211D02*
Y217D01*
X2886Y220*
X2888Y222*
X2891Y224*
X2894*
X2897Y222*
X2898Y220*
X2900Y217*
Y211*
X2898Y208*
X2897Y206*
X2894Y205*
X2891*
X2888Y206*
X2886Y208*
X2884Y211*
X2909Y217D02*
Y210D01*
X2911Y206*
X2914Y205*
X2917*
X2920Y206*
X2922Y210*
Y217D02*
Y205D01*
X2938Y217D02*
X2944D01*
X2941Y220D02*
Y206D01*
X2942Y205*
X2944*
X2945Y206*
X2959Y217D02*
Y200D01*
Y210D02*
X2961Y206D01*
X2964Y205*
X2967*
X2970Y206*
X2972Y210*
Y213*
X2970Y216*
X2967Y217*
X2964*
X2961Y216*
X2959Y213*
Y210*
X2984Y217D02*
Y210D01*
X2986Y206*
X2989Y205*
X2992*
X2995Y206*
X2997Y210*
Y217D02*
Y205D01*
X3013Y217D02*
X3019D01*
X3016Y220D02*
Y206D01*
X3017Y205*
X3019*
X3020Y206*
X3066Y205D02*
Y220D01*
X3067Y222*
X3069*
X3070Y220*
X3063Y216D02*
X3069D01*
X3084Y210D02*
X3086Y206D01*
X3089Y205*
X3092*
X3095Y206*
X3097Y210*
Y213*
X3095Y216*
X3092Y217*
X3089*
X3086Y216*
X3084Y213*
Y210*
X3109Y205D02*
Y217D01*
Y213D02*
X3111Y216D01*
X3114Y217*
X3117*
X3120Y216*
X3163Y217D02*
X3169D01*
X3166Y220D02*
Y206D01*
X3167Y205*
X3169*
X3170Y206*
X3197D02*
X3195Y205D01*
X3192*
X3189*
X3186Y206*
X3184Y210*
Y214*
X3186Y216*
X3189Y217*
X3192*
X3195Y216*
X3197Y214*
Y213*
X3195Y211*
X3192Y210*
X3189*
X3186Y211*
X3184Y213*
X3209Y205D02*
Y217D01*
Y216D02*
X3211Y217D01*
X3214*
X3216Y216*
Y211*
Y216D02*
X3217Y217D01*
X3220*
X3222Y216*
Y205*
X3234Y217D02*
Y200D01*
Y210D02*
X3236Y206D01*
X3239Y205*
X3242*
X3245Y206*
X3247Y210*
Y213*
X3245Y216*
X3242Y217*
X3239*
X3236Y216*
X3234Y213*
Y210*
X3272Y206D02*
X3270Y205D01*
X3267*
X3264*
X3261Y206*
X3259Y210*
Y214*
X3261Y216*
X3264Y217*
X3267*
X3270Y216*
X3272Y214*
Y213*
X3270Y211*
X3267Y210*
X3264*
X3261Y211*
X3259Y213*
X3284Y205D02*
Y217D01*
Y213D02*
X3286Y216D01*
X3289Y217*
X3292*
X3295Y216*
X3309D02*
X3313Y217D01*
X3317*
X3320Y216*
X3322Y213*
Y208*
X3320Y206*
X3317Y205*
X3314*
X3311Y206*
X3309Y208*
Y210*
X3311Y211*
X3314Y213*
X3317*
X3320Y211*
X3322Y210*
Y208D02*
Y205D01*
X3338Y217D02*
X3344D01*
X3341Y220D02*
Y206D01*
X3342Y205*
X3344*
X3345Y206*
X3359Y217D02*
Y210D01*
X3361Y206*
X3364Y205*
X3367*
X3370Y206*
X3372Y210*
Y217D02*
Y205D01*
X3384D02*
Y217D01*
Y213D02*
X3386Y216D01*
X3389Y217*
X3392*
X3395Y216*
X3422Y206D02*
X3420Y205D01*
X3417*
X3414*
X3411Y206*
X3409Y210*
Y214*
X3411Y216*
X3414Y217*
X3417*
X3420Y216*
X3422Y214*
Y213*
X3420Y211*
X3417Y210*
X3414*
X3411Y211*
X3409Y213*
X3472Y216D02*
X3469Y217D01*
X3464*
X3461Y216*
X3459Y213*
Y210*
X3461Y206*
X3464Y205*
X3469*
X3472Y206*
X3484Y210D02*
X3486Y206D01*
X3489Y205*
X3492*
X3495Y206*
X3497Y210*
Y213*
X3495Y216*
X3492Y217*
X3489*
X3486Y216*
X3484Y213*
Y210*
X3509Y205D02*
Y217D01*
Y213D02*
X3511Y216D01*
X3514Y217*
X3517*
X3520Y216*
X3522Y213*
Y205*
X3538Y217D02*
X3544D01*
X3541Y220D02*
Y206D01*
X3542Y205*
X3544*
X3545Y206*
X3559Y205D02*
Y217D01*
Y213D02*
X3561Y216D01*
X3564Y217*
X3567*
X3570Y216*
X3584Y210D02*
X3586Y206D01*
X3589Y205*
X3592*
X3595Y206*
X3597Y210*
Y213*
X3595Y216*
X3592Y217*
X3589*
X3586Y216*
X3584Y213*
Y210*
X3617Y205D02*
X3616D01*
Y224*
X3584Y1311D02*
Y1317D01*
X3586Y1320*
X3588Y1322*
X3591Y1324*
X3594*
X3597Y1322*
X3598Y1320*
X3600Y1317*
Y1311*
X3598Y1308*
X3597Y1306*
X3594Y1305*
X3591*
X3588Y1306*
X3586Y1308*
X3584Y1311*
X3609Y1305D02*
Y1324D01*
X3620*
X3623Y1322*
X3625Y1319*
X3623Y1316*
X3620Y1314*
X3609*
X3634Y1305D02*
X3642Y1324D01*
X3650Y1305*
X3638Y1313D02*
X3647D01*
X3672Y1305D02*
X3659D01*
X3670Y1316*
X3672Y1319*
X3670Y1322*
X3667Y1324*
X3663*
X3659Y1322*
X3686Y1306D02*
X3689Y1305D01*
X3692*
X3695Y1306*
X3697Y1310*
X3695Y1313*
X3692Y1314*
X3689*
X3692D02*
X3695Y1316D01*
X3697Y1319*
X3695Y1322*
X3692Y1324*
X3689*
X3686Y1322*
X3709Y1306D02*
X3713Y1305D01*
X3717*
X3720Y1306*
X3722Y1310*
Y1311*
X3720Y1314*
X3717Y1316*
X3709*
Y1324*
X3722*
X3736Y1306D02*
X3739Y1305D01*
X3742*
X3745Y1306*
X3747Y1310*
Y1319*
X3745Y1322*
X3742Y1324*
X3739*
X3736Y1322*
X3734Y1319*
Y1310*
X3736Y1306*
X3745Y1322*
X3845Y363D02*
X3850D01*
Y361*
X3848Y358*
X3847Y356*
X3844Y355*
X3841*
X3838Y356*
X3836Y358*
X3834Y361*
Y367*
X3836Y370*
X3838Y372*
X3841Y374*
X3844*
X3847Y372*
X3848Y370*
X3850Y367*
X3859Y355D02*
Y374D01*
X3875Y355*
Y374*
X3884Y355D02*
Y374D01*
X3894*
X3897Y372*
X3898Y370*
X3900Y367*
Y361*
X3898Y358*
X3897Y356*
X3894Y355*
X3884*
X3834Y461D02*
X3847D01*
X3841Y455D02*
Y467D01*
D02*
D11*
X284Y1800D02*
Y1500D01*
X384*
Y1800*
X296Y1790D02*
X284D01*
Y1800*
X384*
Y1790*
X373*
X684Y1900D02*
X2684D01*
Y2000*
X684*
X694Y1912D02*
Y1900D01*
X684*
Y2000*
X694*
Y1989*
X1254Y1267D02*
Y1233D01*
Y1367D02*
Y1333D01*
Y1462D02*
Y1433D01*
X1372Y1550D02*
G75*
G03X1396I12D01*
G01*
X1514Y1167D02*
Y1150D01*
X1254*
Y1167*
X1514Y1233D02*
Y1267D01*
Y1333D02*
Y1367D01*
Y1433D02*
Y1467D01*
Y1533D02*
Y1550D01*
X1254*
Y1539*
X1534Y1568D02*
G75*
G03Y1562J-3D01*
G01*
G75*
G03Y1568J3*
G01*
X1609Y1675D02*
Y1725D01*
G75*
G03X1534Y1800I-75*
G01*
G75*
G03X1459Y1725J-75*
G01*
Y1675*
G75*
G03X1609I75*
G01*
X1984Y303D02*
G75*
G03X2024Y262J-40D01*
G01*
X2004Y1267D02*
Y1233D01*
Y1367D02*
Y1333D01*
Y1462D02*
Y1433D01*
X2122Y1550D02*
G75*
G03X2146I12D01*
G01*
X2129Y213D02*
Y588D01*
X1934*
Y213*
X2129*
X2179Y518D02*
G75*
G03Y508J-5D01*
G01*
G75*
G03Y518J5*
G01*
X2264Y1167D02*
Y1150D01*
X2004*
Y1167*
X2264Y1233D02*
Y1267D01*
Y1333D02*
Y1367D01*
Y1433D02*
Y1467D01*
Y1533D02*
Y1550D01*
X2004*
Y1539*
X2284Y1568D02*
G75*
G03Y1562J-3D01*
G01*
G75*
G03Y1568J3*
G01*
X2359Y1675D02*
Y1725D01*
G75*
G03X2284Y1800I-75*
G01*
G75*
G03X2209Y1725J-75*
G01*
Y1675*
G75*
G03X2359I75*
G01*
X2804Y367D02*
Y333D01*
Y467D02*
Y433D01*
Y562D02*
Y533D01*
Y1267D02*
Y1233D01*
Y1367D02*
Y1333D01*
Y1462D02*
Y1433D01*
X2922Y650D02*
G75*
G03X2946I12D01*
G01*
X2922Y1550D02*
G75*
G03X2946I12D01*
G01*
X2984Y668D02*
G75*
G03Y662J-3D01*
G01*
G75*
G03Y668J3*
G01*
X3059Y775D02*
Y825D01*
G75*
G03X2984Y900I-75*
G01*
G75*
G03X2909Y825J-75*
G01*
Y775*
G75*
G03X3059I75*
G01*
X3064Y267D02*
Y250D01*
X2804*
Y267*
X3064Y333D02*
Y367D01*
Y433D02*
Y467D01*
Y533D02*
Y567D01*
Y633D02*
Y650D01*
X2804*
Y639*
X3064Y1167D02*
Y1150D01*
X2804*
Y1167*
X3064Y1233D02*
Y1267D01*
Y1333D02*
Y1367D01*
Y1433D02*
Y1467D01*
Y1533D02*
Y1550D01*
X2804*
Y1539*
X3084Y1568D02*
G75*
G03Y1562J-3D01*
G01*
G75*
G03Y1568J3*
G01*
X3159Y1675D02*
Y1725D01*
G75*
G03X3084Y1800I-75*
G01*
G75*
G03X3009Y1725J-75*
G01*
Y1675*
G75*
G03X3159I75*
G01*
X3434Y341D02*
G75*
G03Y518J89D01*
G01*
G75*
G03Y341J-89*
G01*
Y578D02*
Y528D01*
X3459Y553D02*
X3409D01*
X3554Y1267D02*
Y1233D01*
Y1367D02*
Y1333D01*
Y1462D02*
Y1433D01*
X3672Y1550D02*
G75*
G03X3696I12D01*
G01*
X3814Y1167D02*
Y1150D01*
X3554*
Y1167*
X3814Y1233D02*
Y1267D01*
Y1333D02*
Y1367D01*
Y1433D02*
Y1467D01*
Y1533D02*
Y1550D01*
X3554*
Y1539*
X3834Y1568D02*
G75*
G03Y1562J-3D01*
G01*
G75*
G03Y1568J3*
G01*
X3909Y1675D02*
Y1725D01*
G75*
G03X3834Y1800I-75*
G01*
G75*
G03X3759Y1725J-75*
G01*
Y1675*
G75*
G03X3909I75*
G01*
D02*
D12*
X325Y1800D02*
X322Y1797D01*
X319Y1791*
X322Y1785*
X325Y1781*
X356*
Y1775*
Y1781D02*
Y1794D01*
X319Y1725D02*
Y1750D01*
X341Y1728*
X347Y1725*
X353Y1728*
X356Y1735*
Y1744*
X353Y1750*
X1209Y1553D02*
X1234D01*
X1216Y1540D02*
X1228Y1565D01*
X1216D02*
X1228Y1540D01*
X1284Y1447D02*
Y1419D01*
X1288Y1413*
X1294Y1410*
X1306*
X1313Y1413*
X1316Y1419*
Y1447*
X1350Y1410D02*
Y1447D01*
X1334Y1422*
X1359*
X1416Y1666D02*
X1413Y1663D01*
X1406Y1660*
X1397*
X1391Y1663*
X1388Y1666*
X1384Y1672*
Y1685*
X1388Y1691*
X1391Y1694*
X1397Y1697*
X1406*
X1413Y1694*
X1416Y1691*
X1450Y1660D02*
Y1697D01*
X1434Y1672*
X1459*
X1534Y1941D02*
X1538Y1938D01*
X1544Y1935*
X1550Y1938*
X1553Y1941*
Y1972*
X1559*
X1553D02*
X1541D01*
X1591Y1935D02*
X1603D01*
X1597D02*
Y1972D01*
X1591Y1966*
X1959Y1553D02*
X1984D01*
X1966Y1540D02*
X1978Y1565D01*
X1966D02*
X1978Y1540D01*
X1984Y610D02*
Y647D01*
X2006*
X2013Y644*
X2016Y638*
X2013Y631*
X2006Y628*
X1984*
X2006D02*
X2016Y610D01*
X2044D02*
X2050Y613D01*
X2056Y619*
X2059Y628*
Y638*
X2056Y644*
X2050Y647*
X2044*
X2038Y644*
X2034Y638*
X2038Y631*
X2044Y628*
X2050*
X2056Y631*
X2059Y638*
X2034Y1447D02*
Y1419D01*
X2038Y1413*
X2044Y1410*
X2056*
X2063Y1413*
X2066Y1419*
Y1447*
X2088Y1413D02*
X2094Y1410D01*
X2100*
X2106Y1413*
X2109Y1419*
X2106Y1425*
X2100Y1428*
X2094*
X2100D02*
X2106Y1431D01*
X2109Y1438*
X2106Y1444*
X2100Y1447*
X2094*
X2088Y1444*
X2166Y1716D02*
X2163Y1713D01*
X2156Y1710*
X2147*
X2141Y1713*
X2138Y1716*
X2134Y1722*
Y1735*
X2138Y1741*
X2141Y1744*
X2147Y1747*
X2156*
X2163Y1744*
X2166Y1741*
X2188Y1713D02*
X2194Y1710D01*
X2200*
X2206Y1713*
X2209Y1719*
X2206Y1725*
X2200Y1728*
X2194*
X2200D02*
X2206Y1731D01*
X2209Y1738*
X2206Y1744*
X2200Y1747*
X2194*
X2188Y1744*
X2759Y653D02*
X2784D01*
X2766Y640D02*
X2778Y665D01*
X2766D02*
X2778Y640D01*
X2759Y1553D02*
X2784D01*
X2766Y1540D02*
X2778Y1565D01*
X2766D02*
X2778Y1540D01*
X2834Y547D02*
Y519D01*
X2838Y513*
X2844Y510*
X2856*
X2863Y513*
X2866Y519*
Y547*
X2884Y513D02*
X2891Y510D01*
X2900*
X2906Y513*
X2909Y519*
Y522*
X2906Y528*
X2900Y531*
X2884*
Y547*
X2909*
X2834Y1447D02*
Y1419D01*
X2838Y1413*
X2844Y1410*
X2856*
X2863Y1413*
X2866Y1419*
Y1447*
X2909Y1410D02*
X2884D01*
X2906Y1431*
X2909Y1438*
X2906Y1444*
X2900Y1447*
X2891*
X2884Y1444*
X2869Y831D02*
X2872Y828D01*
X2875Y822*
Y813*
X2872Y806*
X2869Y803*
X2863Y800*
X2850*
X2844Y803*
X2841Y806*
X2838Y813*
Y822*
X2841Y828*
X2844Y831*
X2872Y850D02*
X2875Y856D01*
Y866*
X2872Y872*
X2866Y875*
X2863*
X2856Y872*
X2853Y866*
Y850*
X2838*
Y875*
X3116Y1816D02*
X3113Y1813D01*
X3106Y1810*
X3097*
X3091Y1813*
X3088Y1816*
X3084Y1822*
Y1835*
X3088Y1841*
X3091Y1844*
X3097Y1847*
X3106*
X3113Y1844*
X3116Y1841*
X3159Y1810D02*
X3134D01*
X3156Y1831*
X3159Y1838*
X3156Y1844*
X3150Y1847*
X3141*
X3134Y1844*
X3316Y516D02*
X3313Y513D01*
X3306Y510*
X3297*
X3291Y513*
X3288Y516*
X3284Y522*
Y535*
X3288Y541*
X3291Y544*
X3297Y547*
X3306*
X3313Y544*
X3316Y541*
X3334Y519D02*
X3338Y525D01*
X3344Y528*
X3350*
X3356Y525*
X3359Y519*
X3356Y513*
X3350Y510*
X3344*
X3338Y513*
X3334Y519*
Y528*
X3338Y538*
X3344Y544*
X3350Y547*
X3509Y1553D02*
X3534D01*
X3516Y1540D02*
X3528Y1565D01*
X3516D02*
X3528Y1540D01*
X3584Y1447D02*
Y1419D01*
X3588Y1413*
X3594Y1410*
X3606*
X3613Y1413*
X3616Y1419*
Y1447*
X3641Y1410D02*
X3653D01*
X3647D02*
Y1447D01*
X3641Y1441*
X3716Y1766D02*
X3713Y1763D01*
X3706Y1760*
X3697*
X3691Y1763*
X3688Y1766*
X3684Y1772*
Y1785*
X3688Y1791*
X3691Y1794*
X3697Y1797*
X3706*
X3713Y1794*
X3716Y1791*
X3741Y1760D02*
X3753D01*
X3747D02*
Y1797D01*
X3741Y1791*
D02*
D13*
X434Y300D02*
X234D01*
Y200*
X434*
Y300*
Y450D02*
X234D01*
Y350*
X434*
Y450*
Y600D02*
X234D01*
Y500*
X434*
Y600*
Y750D02*
X234D01*
Y650*
X434*
Y750*
Y900D02*
X234D01*
Y800*
X434*
Y900*
Y1050D02*
X234D01*
Y950*
X434*
Y1050*
Y1200D02*
X234D01*
Y1100*
X434*
Y1200*
Y1350D02*
X234D01*
Y1250*
X434*
Y1350*
X3684Y500D02*
Y300D01*
X3784*
Y500*
X3684*
D02*
D14*
X634Y250D02*
X684D01*
X634Y400D02*
X684D01*
X634Y550D02*
X684D01*
X634Y700D02*
X684D01*
X634Y850D02*
X684D01*
X634Y1000D02*
X684D01*
X634Y1150D02*
X684D01*
X634Y1300D02*
X684D01*
Y200D02*
Y300D01*
X884*
Y200*
X684*
Y350D02*
Y450D01*
X884*
Y350*
X684*
Y500D02*
Y600D01*
X884*
Y500*
X684*
Y650D02*
Y750D01*
X884*
Y650*
X684*
Y800D02*
Y900D01*
X884*
Y800*
X684*
Y950D02*
Y1050D01*
X884*
Y950*
X684*
Y1100D02*
Y1200D01*
X884*
Y1100*
X684*
Y1250D02*
Y1350D01*
X884*
Y1250*
X684*
X734Y260D02*
Y297D01*
X756*
X763Y294*
X766Y288*
X763Y281*
X756Y278*
X734*
X756D02*
X766Y260D01*
X791D02*
X803D01*
X797D02*
Y297D01*
X791Y291*
X734Y410D02*
Y447D01*
X756*
X763Y444*
X766Y438*
X763Y431*
X756Y428*
X734*
X756D02*
X766Y410D01*
X809D02*
X784D01*
X806Y431*
X809Y438*
X806Y444*
X800Y447*
X791*
X784Y444*
X734Y560D02*
Y597D01*
X756*
X763Y594*
X766Y588*
X763Y581*
X756Y578*
X734*
X756D02*
X766Y560D01*
X788Y563D02*
X794Y560D01*
X800*
X806Y563*
X809Y569*
X806Y575*
X800Y578*
X794*
X800D02*
X806Y581D01*
X809Y588*
X806Y594*
X800Y597*
X794*
X788Y594*
X734Y710D02*
Y747D01*
X756*
X763Y744*
X766Y738*
X763Y731*
X756Y728*
X734*
X756D02*
X766Y710D01*
X800D02*
Y747D01*
X784Y722*
X809*
X734Y1010D02*
Y1047D01*
X756*
X763Y1044*
X766Y1038*
X763Y1031*
X756Y1028*
X734*
X756D02*
X766Y1010D01*
X784Y1019D02*
X788Y1025D01*
X794Y1028*
X800*
X806Y1025*
X809Y1019*
X806Y1013*
X800Y1010*
X794*
X788Y1013*
X784Y1019*
Y1028*
X788Y1038*
X794Y1044*
X800Y1047*
X734Y1160D02*
Y1197D01*
X756*
X763Y1194*
X766Y1188*
X763Y1181*
X756Y1178*
X734*
X756D02*
X766Y1160D01*
X784D02*
X809Y1197D01*
X784*
X734Y1310D02*
Y1347D01*
X756*
X763Y1344*
X766Y1338*
X763Y1331*
X756Y1328*
X734*
X756D02*
X766Y1310D01*
X794Y1328D02*
X800D01*
X806Y1331*
X809Y1338*
X806Y1344*
X800Y1347*
X794*
X788Y1344*
X784Y1338*
X788Y1331*
X794Y1328*
X788Y1325*
X784Y1319*
X788Y1313*
X794Y1310*
X800*
X806Y1313*
X809Y1319*
X806Y1325*
X800Y1328*
X747Y860D02*
Y897D01*
X769*
X775Y894*
X778Y888*
X775Y881*
X769Y878*
X747*
X769D02*
X778Y860D01*
X797Y863D02*
X803Y860D01*
X813*
X819Y863*
X822Y869*
Y872*
X819Y878*
X813Y881*
X797*
Y897*
X822*
X884Y250D02*
X934D01*
X884Y400D02*
X934D01*
X884Y550D02*
X934D01*
X884Y700D02*
X934D01*
X884Y850D02*
X934D01*
X884Y1000D02*
X934D01*
X884Y1150D02*
X934D01*
X884Y1300D02*
X934D01*
X2300Y463D02*
X2263D01*
Y485*
X2266Y491*
X2272Y494*
X2278Y491*
X2281Y485*
Y463*
Y485D02*
X2300Y494D01*
Y519D02*
Y531D01*
Y525D02*
X2263D01*
X2269Y519*
X2300Y569D02*
Y581D01*
Y575D02*
X2263D01*
X2269Y569*
X2384Y350D02*
Y400D01*
Y600D02*
Y650D01*
X2434Y400D02*
X2334D01*
Y600*
X2434*
Y400*
X2534Y800D02*
X2634D01*
Y600*
X2534*
Y800*
X2584Y600D02*
Y550D01*
Y850D02*
Y800D01*
X2669Y738D02*
X2706D01*
Y716*
X2703Y710*
X2697Y706*
X2691Y710*
X2688Y716*
Y738*
Y716D02*
X2669Y706D01*
Y681D02*
Y669D01*
Y675D02*
X2706D01*
X2700Y681*
X2672Y635D02*
X2669Y628D01*
Y622*
X2672Y616*
X2678Y613*
X2697*
X2703Y616*
X2706Y622*
Y628*
X2703Y635*
X2697Y638*
X2678*
X2672Y635*
X2703Y616*
X3284Y750D02*
X3334D01*
Y700D02*
Y800D01*
X3534*
Y700*
X3334*
X3397Y835D02*
Y872D01*
X3419*
X3425Y869*
X3428Y863*
X3425Y856*
X3419Y853*
X3397*
X3419D02*
X3428Y835D01*
X3453D02*
X3466D01*
X3459D02*
Y872D01*
X3453Y866*
X3522Y835D02*
X3497D01*
X3519Y856*
X3522Y863*
X3519Y869*
X3513Y872*
X3503*
X3497Y869*
X3534Y750D02*
X3584D01*
X0Y0D02*
M02*
